<svg width="18" height="20" viewBox="0 0 18 20" fill="none" xmlns="http://www.w3.org/2000/svg">
<path d="M4.83344 11.1983C5.06726 11.0785 5.21997 11.0102 5.36381 10.9249C7.25577 9.79938 9.1464 8.67105 11.0377 7.54411C11.1448 7.48025 11.2505 7.41122 11.3631 7.36014C11.728 7.19515 12.1405 7.31699 12.3769 7.65214C12.6081 7.98004 12.6058 8.41287 12.3411 8.72697C12.2216 8.86883 12.0643 8.98446 11.906 9.07937C10.575 9.876 9.24 10.6647 7.90601 11.4558C7.81406 11.5103 7.71127 11.5521 7.63343 11.6232C7.57531 11.6764 7.54838 11.7678 7.50765 11.8424C7.58417 11.842 7.66135 11.8469 7.73721 11.8382C7.76907 11.8348 7.79797 11.803 7.82851 11.7847C9.46003 10.8135 11.0893 9.83838 12.7257 8.87677C12.9109 8.76804 13.1346 8.69383 13.3451 8.67899C13.708 8.65379 13.9622 8.87055 14.105 9.21399C14.2475 9.55673 14.2262 9.8943 13.9671 10.1659C13.8203 10.3199 13.6384 10.4441 13.4564 10.5529C11.8571 11.5083 10.2531 12.4554 8.65478 13.4129C8.55002 13.4757 8.39764 13.6776 8.40913 13.6924C8.54903 13.8716 8.65248 13.6734 8.75264 13.6148C10.2203 12.7529 11.683 11.8817 13.1464 11.0116C13.4548 10.8283 13.7668 10.7969 14.0696 11.0088C14.37 11.2194 14.5228 11.5241 14.4975 11.9069C14.4725 12.2887 14.241 12.5189 13.9415 12.6946C12.9651 13.2668 11.9897 13.8409 11.0144 14.4145C10.5303 14.6989 10.0439 14.9795 9.56545 15.274C9.49616 15.3164 9.46496 15.4275 9.41636 15.5073C9.50962 15.5038 9.62062 15.5342 9.6932 15.4921C10.7083 14.8981 11.7142 14.2865 12.7306 13.6948C13.3149 13.3549 13.9356 13.6852 14.0472 14.3738C14.1083 14.7493 13.9369 15.0831 13.5382 15.3223C12.5825 15.8956 11.6236 16.4627 10.6653 17.0312C9.57662 17.677 8.4909 18.3272 7.39764 18.9644C6.42424 19.5315 5.38845 19.9229 4.27219 19.993C2.42162 20.1089 0.733936 18.778 0.171375 16.8137C-0.185603 15.5666 0.0462522 14.4111 0.579256 13.2717C1.13394 12.085 1.83147 11.0009 2.5809 9.94641C3.20815 9.06384 3.81636 8.16815 4.25643 7.15891C4.42096 6.78165 4.7428 6.68811 5.09813 6.8776C5.54575 7.11645 5.7093 7.55515 5.70339 8.03009C5.69879 8.40804 5.60454 8.79634 5.48828 9.15807C5.30831 9.71792 5.07219 10.2574 4.86923 10.809C4.83574 10.8994 4.8492 11.0105 4.83344 11.1983Z" fill="#5C068C"/>
<path d="M6.66135 19.7324C8.92506 18.3914 11.1901 17.047 13.4584 15.7089C13.8522 15.4766 14.2078 15.2242 14.3228 14.7231C14.3375 14.6585 14.4226 14.5999 14.4873 14.5612C15.0535 14.224 15.6206 13.8885 16.1914 13.5595C16.6873 13.2738 17.1595 13.3984 17.419 13.873C17.6827 14.3551 17.5612 14.8446 17.0617 15.1452C15.3214 16.1924 13.573 17.2241 11.8298 18.2658C10.8883 18.8284 9.94476 19.3817 8.87777 19.6513C8.1336 19.8397 7.39107 19.9395 6.66135 19.7324Z" fill="#5C068C"/>
<path d="M14.3428 14.3624C14.2209 13.8637 13.9881 13.5009 13.4981 13.2997C13.7086 13.172 13.883 13.0612 14.062 12.9587C14.4088 12.7599 14.661 12.4848 14.7654 12.0706C14.7845 11.9953 14.858 11.9173 14.926 11.8762C15.4971 11.5311 16.0702 11.189 16.6475 10.856C17.1178 10.5847 17.5963 10.7186 17.8574 11.1801C18.1257 11.654 18.013 12.1827 17.5398 12.4703C16.4909 13.1074 15.4288 13.7215 14.3428 14.3624Z" fill="#5C068C"/>
<path d="M14.0029 10.6378C14.155 10.3637 14.2952 10.1035 14.4437 9.84873C14.4821 9.78281 14.5372 9.71654 14.6003 9.67891C15.173 9.33444 15.7455 8.98928 16.3254 8.65897C16.8079 8.38387 17.3005 8.51124 17.5481 8.95373C17.798 9.40106 17.7024 9.88843 17.2716 10.1922C16.951 10.4182 16.6052 10.6053 16.2689 10.8066C15.7809 11.0986 15.2913 11.3882 14.7875 11.6877C14.6722 11.1779 14.42 10.81 14.0029 10.6378Z" fill="#5C068C"/>
<path d="M5.68237 10.3599C5.93492 9.99645 6.20651 9.64543 6.43574 9.26644C6.87843 8.53539 7.30766 7.79468 7.72178 7.04534C7.94838 6.63495 8.2492 6.51932 8.64099 6.75127C9.03705 6.98563 9.34017 7.78364 9.19731 8.23683C9.17827 8.29758 9.11686 8.35591 9.06103 8.38974C7.94871 9.06038 6.83442 9.72723 5.72047 10.3951C5.70766 10.383 5.69485 10.3716 5.68237 10.3599Z" fill="#5C068C"/>
<path d="M14.4784 9.48044C14.2173 8.52918 13.7641 8.25754 12.7677 8.47051C12.8672 8.39941 12.9155 8.35971 12.9681 8.32796C13.548 7.98038 14.1267 7.63004 14.7096 7.28834C15.1717 7.01739 15.6534 7.13163 15.9093 7.5617C16.1612 7.98556 16.037 8.5102 15.5894 8.80842C15.2354 9.04416 14.8626 9.24953 14.4784 9.48044Z" fill="#5C068C"/>
<path d="M7.96253 0C8.01672 0.06489 8.16845 0.164296 8.19702 0.294076C8.40917 1.24672 8.6003 2.20453 8.78946 3.16235C8.83938 3.41466 8.73035 3.59691 8.53232 3.62694C8.2962 3.66249 8.16812 3.53064 8.12083 3.30042C7.92575 2.3533 7.73035 1.40583 7.54086 0.457336C7.48963 0.199502 7.64135 0.000690319 7.96253 0Z" fill="#5C068C"/>
<path d="M12.1159 3.62555C11.7678 3.63556 11.6187 3.39602 11.7103 3.09746C11.8834 2.53416 12.0673 1.97465 12.2463 1.41342C12.3497 1.08897 12.4486 0.762799 12.5579 0.44042C12.64 0.198118 12.8101 0.101473 13.0046 0.17016C13.2003 0.239192 13.2837 0.423162 13.2065 0.668915C12.9251 1.5646 12.6423 2.46029 12.3435 3.34942C12.3011 3.4761 12.1658 3.56757 12.1159 3.62555Z" fill="#5C068C"/>
<path d="M5.84132 4.73074C5.83902 5.06658 5.58254 5.23709 5.35593 5.11767C5.29485 5.08557 5.24165 5.03207 5.1914 4.98098C4.59534 4.37765 3.99994 3.77431 3.40651 3.16821C3.2052 2.96284 3.18188 2.75057 3.33328 2.59007C3.48599 2.42853 3.68073 2.44924 3.88763 2.65841C4.48401 3.26106 5.0804 3.86405 5.67121 4.47256C5.75429 4.55782 5.80618 4.67586 5.84132 4.73074Z" fill="#5C068C"/>
<path d="M14.969 5.7569C14.8597 5.66164 14.7188 5.59813 14.6935 5.50149C14.662 5.37999 14.6833 5.19567 14.7556 5.10076C14.9582 4.83464 15.1986 4.60027 15.4245 4.35418C15.7848 3.96138 16.1441 3.56721 16.5066 3.17684C16.7027 2.9656 16.9053 2.93902 17.0587 3.09572C17.2107 3.25105 17.1917 3.46712 16.9979 3.67939C16.4311 4.29999 15.8643 4.92024 15.2912 5.53428C15.2104 5.62022 15.0955 5.67131 14.969 5.7569Z" fill="#5C068C"/>
</svg>
