<svg width="20" height="16" viewBox="0 0 20 16" fill="none" xmlns="http://www.w3.org/2000/svg">
<path d="M5.9976 9.83098C6.07594 9.75955 6.1226 9.71696 6.16955 9.67437C6.67519 9.21613 7.22977 8.82528 7.87512 8.5622C9.16073 8.03793 10.4053 8.14979 11.6036 8.8048C11.9443 8.99106 12.2602 9.21829 12.5928 9.43043C12.1946 8.84955 11.6463 8.42339 11.0343 8.04844C11.0456 8.02688 11.0535 8.00693 11.0654 7.98995C12.1301 6.47588 13.6047 5.64459 15.5305 5.69014C17.3634 5.73354 18.7021 6.59826 19.4861 8.17163C20.2785 9.76197 20.1546 11.317 19.1142 12.7861C18.5231 13.6206 17.6626 14.0705 16.6606 14.3061C15.7469 14.5209 14.8153 14.5724 13.881 14.5298C13.39 14.5074 12.9409 14.5977 12.4947 14.7756C11.8174 15.0454 11.142 15.3255 10.4478 15.55C9.17713 15.9614 7.86296 16.0635 6.52729 15.9654C5.49733 15.8897 4.47246 15.7856 3.46795 15.5454C2.68714 15.3586 1.9363 15.1002 1.25532 14.6818C0.92105 14.4764 0.61195 14.2419 0.356864 13.9484C0.0539842 13.5998 -0.0639437 13.2141 0.0333397 12.7572C0.300303 11.5017 0.614495 10.2598 1.09667 9.0606C1.57206 7.87863 2.23211 6.79476 2.99709 5.76454C3.88961 4.56234 4.7711 3.35233 5.66984 2.15445C5.92945 1.80862 6.21791 1.4795 6.52022 1.16655C6.8593 0.815593 7.28746 0.598335 7.78123 0.489437C8.81034 0.263014 9.83945 0.0419826 10.9005 0.00828877C11.1641 -6.72944e-05 11.4282 -0.00222373 11.6921 0.00235863C11.9217 0.00640188 12.1004 0.0942754 12.2356 0.286734C12.5973 0.801576 12.9734 1.30725 13.3439 1.81643C13.5272 2.06846 13.5226 2.28518 13.276 2.48465C12.944 2.75312 12.6067 3.02887 12.1332 3.04612C12.0804 3.04801 12.0244 3.07496 11.9774 3.10246C11.6355 3.30112 11.2682 3.35045 10.8753 3.29788C10.7724 3.28414 10.6596 3.30327 10.5572 3.32861C10.1898 3.41918 9.87706 3.36365 9.63753 3.05825C9.61264 3.02645 9.54307 3.01351 9.49443 3.01351C9.00519 3.01243 8.51623 3.02105 8.02698 3.01512C7.88021 3.01324 7.81036 3.09087 7.75577 3.19222C7.60928 3.46366 7.46308 3.73536 7.32931 4.01246C6.88362 4.93675 6.5468 5.89851 6.25948 6.87644C6.21536 7.02684 6.18255 7.1848 6.17718 7.34006C6.14918 8.15923 6.16898 8.98082 5.9976 9.83098Z" fill="#5C068C"/>
</svg>
